<?xml version="1.0" encoding="utf-8"?>
<!-- Generator: Adobe Illustrator 23.0.0, SVG Export Plug-In . SVG Version: 6.00 Build 0)  -->
<svg version="1.1" id="Layer_1" xmlns="http://www.w3.org/2000/svg" xmlns:xlink="http://www.w3.org/1999/xlink" x="0px" y="0px"
	 viewBox="0 0 128 128" style="enable-background:new 0 0 128 128;" xml:space="preserve">
<style type="text/css">
	.st0{clip-path:url(#SVGID_2_);}
	.st1{fill:url(#SVGID_3_);}
	.st2{clip-path:url(#SVGID_5_);}
	.st3{fill:url(#SVGID_6_);}
	.st4{opacity:0.4;clip-path:url(#SVGID_5_);}
	.st5{opacity:0.3;fill:#CCCCCC;}
	.st6{opacity:0.2;fill:#CCCCCC;}
	.st7{fill:#FFFFFF;}
	.st8{fill:#F1F2F2;}
	.st9{clip-path:url(#SVGID_8_);}
	.st10{fill:url(#SVGID_9_);}
	.st11{opacity:0.4;clip-path:url(#SVGID_8_);}
	.st12{clip-path:url(#SVGID_11_);}
	.st13{fill:url(#SVGID_12_);}
	.st14{opacity:0.4;clip-path:url(#SVGID_11_);}
	.st15{clip-path:url(#SVGID_14_);}
	.st16{fill:url(#SVGID_15_);}
	.st17{opacity:0.4;clip-path:url(#SVGID_14_);}
</style>
<g>
	<defs>
		<rect id="SVGID_1_" width="128" height="128"/>
	</defs>
	<clipPath id="SVGID_2_">
		<use xlink:href="#SVGID_1_"  style="overflow:visible;"/>
	</clipPath>
	<g class="st0">
		<linearGradient id="SVGID_3_" gradientUnits="userSpaceOnUse" x1="322.5223" y1="-71.944" x2="20.414" y2="143.9511">
			<stop  offset="1.075375e-02" style="stop-color:#79CBC2"/>
			<stop  offset="1" style="stop-color:#0696BD"/>
		</linearGradient>
		<rect x="-64.5" y="-51.5" class="st1" width="360" height="255"/>
	</g>
</g>
<g>
	<defs>
		<rect id="SVGID_7_" x="-441.5" y="-584.5" width="590" height="416"/>
	</defs>
	<clipPath id="SVGID_5_">
		<use xlink:href="#SVGID_7_"  style="overflow:visible;"/>
	</clipPath>
	<g class="st4">
		<g>
			<path class="st6" d="M212.2-172.7c-66.9,6.9-119,49.7-138.1,115.2c-12.6,43.4-37,80.9-83,92.5C-142.1,68.8-210.4-93.4-325-124.3
				c-41.3-11.1-80.8-11-116.5,3.6V65.5h762v-217.2C293.2-172,243.6-176,212.2-172.7z"/>
			<path class="st6" d="M82.3-20.6c-16-20.2-46.2-39.7-72.2-44.2c-22.2-3.8-49.5-1-71.2,4.1c-69.5,16.5-148.5,79.5-223.1,41.8
				c-32.1-16.3-53.1-46.6-80-69.4c-23.2-19.6-48.7-37.7-77.4-46.8V65.5H86.9C98.4,37.1,102.4,4.7,82.3-20.6z"/>
			<path class="st6" d="M-441.5,65.5H131c-1-3.3-2.2-6.7-3.5-10C112.5,18,88-12.3,54.6-26.4c-16.1-6.8-34.2-9.8-54.2-8.1
				c-32.6,2.8-62.8,15.1-91.3,30.7c-25.3,13.8-44.7,35.5-71.5,46.7c-52.2,21.9-98.9-9.3-149.7-18.7c-6.4-1.2-12.9-2-19.5-2.4
				c-20.3-1-41.8,0.1-61.5,4.8c-16.4,4-33.3,10.5-48.5,19.4V65.5z"/>
			<path class="st6" d="M154.5-303.4c-29.9-24.8-55.9-53-88.8-75c-32.9-22-82.7-37.2-121.2-46.5c-27.9-6.7-55.8-8.6-85.5-7.2
				c-36.5,1.7-58.3,19.4-83.6,43.5c-34.2,32.5-72.5,39.1-117,25.2c-26.3-8.2-52.2-10.2-79.8-10.2c-6.7,0-13.4,0.6-20,1.6V65.5h210.9
				c1.4-0.9,2.9-1.7,4.3-2.6c44.9-27.8,73.1-78.1,117.7-107.4c41.8-27.4,79.4-39.1,129.8-34c57.5,5.8,81.6,40.3,119,78.1
				C160,19.6,178.8,36,205.1,46.7c33.1,13.5,75.9,17.9,115.4,12.4v-333.3C261.7-261.3,200.4-265.3,154.5-303.4z"/>
			<path class="st6" d="M320.4,65.5v-356.3c-22,6.3-42.3,18.4-58.9,37.7c-26,30.1-8.4,56.5-7.3,90.5c1,30.4-13.7,85.2-39.5,103.5
				C153-15.5,42.1-77.8,11,6.7c-7.6,20.7-6.9,40.4-0.8,58.8H320.4z"/>
		</g>
	</g>
</g>
<g>
	<path class="st7" d="M36.5,61.8h-2.3v-5.9h5.9v2.3h-3.5V61.8z"/>
	<path class="st7" d="M78.7,107.4h-2.3v-2.3h2.3V107.4z M74,107.4h-2.3v-2.3H74V107.4z M69.3,107.4H67v-2.3h2.3V107.4z M64.7,107.4
		h-2.3v-2.3h2.3V107.4z M60,107.4h-2.3v-2.3H60V107.4z M55.3,107.4h-2.3v-2.3h2.3V107.4z M50.6,107.4h-2.3v-2.3h2.3V107.4z
		 M45.9,107.4h-2.3v-2.3h2.3V107.4z M41.2,107.4h-2.3v-2.3h2.3V107.4z M36.5,107.4h-2.3v-2.3h2.3V107.4z"/>
	<path class="st7" d="M78.7,112.1h-2.3v-2.3h2.3V112.1z M74,112.1h-2.3v-2.3H74V112.1z M69.3,112.1H67v-2.3h2.3V112.1z M64.7,112.1
		h-2.3v-2.3h2.3V112.1z M60,112.1h-2.3v-2.3H60V112.1z M55.3,112.1h-2.3v-2.3h2.3V112.1z M50.6,112.1h-2.3v-2.3h2.3V112.1z
		 M45.9,112.1h-2.3v-2.3h2.3V112.1z M41.2,112.1h-2.3v-2.3h2.3V112.1z M36.5,112.1h-2.3v-2.3h2.3V112.1z"/>
	<path class="st7" d="M90.4,55.9h9.4v2.3h-9.4V55.9z"/>
	<path class="st7" d="M90.4,60.6h9.4v2.3h-9.4V60.6z"/>
	<path class="st7" d="M90.4,65.3h9.4v2.3h-9.4V65.3z"/>
	<path class="st7" d="M78.7,72.3h-5.9V70h3.5v-3.5h2.3V72.3z"/>
	<path class="st7" d="M101,51.2H89.3c-1.9,0-3.5,1.6-3.5,3.5v41h18.7v-41C104.5,52.8,102.9,51.2,101,51.2z M102.1,93.4H88.1V54.7
		c0-0.6,0.5-1.2,1.2-1.2H101c0.6,0,1.2,0.5,1.2,1.2V93.4z"/>
	<path class="st7" d="M79.9,100.4H33c-1.9,0-3.5,1.6-3.5,3.5v9.4c0,1.9,1.6,3.5,3.5,3.5h46.9c1.9,0,3.5-1.6,3.5-3.5v-9.4
		C83.4,102,81.8,100.4,79.9,100.4z M81.1,113.3c0,0.6-0.5,1.2-1.2,1.2H33c-0.6,0-1.2-0.5-1.2-1.2v-9.4c0-0.6,0.5-1.2,1.2-1.2h46.9
		c0.6,0,1.2,0.5,1.2,1.2V113.3z"/>
	<path class="st7" d="M93.9,100.4c-3.2,0-5.9,2.6-5.9,5.9v4.7c0,3.2,2.6,5.9,5.9,5.9c3.2,0,5.9-2.6,5.9-5.9v-4.7
		C99.8,103,97.2,100.4,93.9,100.4z M97.5,111c0,1.9-1.6,3.5-3.5,3.5c-1.9,0-3.5-1.6-3.5-3.5v-4.7c0-1.5,0.9-2.8,2.3-3.3v4.5h2.3V103
		c1.4,0.5,2.3,1.8,2.3,3.3V111z"/>
	<path class="st7" d="M79.9,51.2H33c-1.9,0-3.5,1.6-3.5,3.5v28.1c0,1.9,1.6,3.5,3.5,3.5h16.4v4.9c0,1.2-1,2.1-2.1,2.1h-3.7v2.3H67
		v-2.3h-3.7c-1.2,0-2.1-1-2.1-2.1v-4.9h18.7c1.9,0,3.5-1.6,3.5-3.5V54.7C83.4,52.8,81.8,51.2,79.9,51.2z M51.2,93.4
		c0.4-0.7,0.5-1.4,0.5-2.1v-4.9h2.3v5h2.3v-5h2.3v4.9c0,0.8,0.2,1.5,0.5,2.1H51.2z M81.1,82.8c0,0.6-0.5,1.2-1.2,1.2H33
		c-0.6,0-1.2-0.5-1.2-1.2V77h49.2V82.8z M81.1,74.6H31.9V54.7c0-0.6,0.5-1.2,1.2-1.2h46.9c0.6,0,1.2,0.5,1.2,1.2V74.6z"/>
	<path class="st7" d="M96.3,81.8v-2.5h-2.3v2.5c-2.3,0.6-3.8,2.8-3.5,5.1c0.3,2.3,2.3,4.1,4.6,4.1s4.4-1.8,4.6-4.1
		C100.1,84.6,98.6,82.4,96.3,81.8z M95.1,88.7c-1.1,0-2-0.7-2.3-1.7s0.2-2.1,1.1-2.6v2h2.3v-2c0.9,0.5,1.4,1.6,1.1,2.6
		S96.2,88.7,95.1,88.7z"/>
	<path class="st7" d="M54.1,79.3h2.3v2.3h-2.3V79.3z"/>
</g>
<g>
	<path class="st7" d="M39.7,12.5c17.1,0,34.1,0,51.2,0c0.3,0,0.5,0.1,0.8,0.1c2.4,0.3,4.3,2.2,4.8,4.5c0.1,0.3,0.1,0.7,0.2,1
		c0,6.6,0,13.2,0,19.7c0,0.1-0.1,0.2-0.1,0.3c0,0.7-0.2,1.3-0.5,1.9c-1.1,2.3-2.9,3.4-5.4,3.5c-5.9,0-11.9,0-17.8,0
		c-0.1,0-0.2,0-0.4,0c0.8,2,1.6,4,2.5,6.1c-0.1-0.1-0.2-0.1-0.2-0.1c-3.5-1.9-6.9-3.9-10.4-5.8c-0.2-0.1-0.4-0.2-0.6-0.2
		c-8,0-15.9,0-23.9,0c-0.9,0-1.7-0.2-2.5-0.6c-2.1-1.1-3.2-3-3.2-5.4c0-6.3,0-12.7,0-19c0-0.4,0-0.8,0.1-1.2
		c0.3-2.3,2.2-4.3,4.5-4.7C39.1,12.6,39.4,12.6,39.7,12.5z M56,30.9c-0.1-0.1-0.1-0.2-0.1-0.3c-1-2.5-1.6-5.2-2.2-7.8
		c-0.1-0.6-0.2-1.1-0.5-1.6c-0.6-1-1.7-1.1-2.5-0.7c-0.6,0.3-0.9,0.8-1.2,1.4c-1.8,3.4-3.6,6.8-5.4,10.2c0,0.1-0.1,0.1-0.1,0.2
		C44,32.1,44,32,44,32c-0.5-2.6-1.1-5.2-1.6-7.9c-0.3-1.8-0.6-3.5-0.9-5.3c-0.2-1.2-0.9-1.9-2.1-1.8c-1.5,0.1-2.4,1.1-2.2,2.6
		c0.2,1.6,0.5,3.2,0.8,4.7c0.6,3,1.1,5.9,1.8,8.9c0.4,1.9,0.9,3.8,1.6,5.7c0.2,0.5,0.4,1,0.8,1.4c0.4,0.4,0.9,0.5,1.5,0.3
		c0.5-0.2,0.9-0.6,1.2-1c1-1.1,1.7-2.4,2.3-3.6c1.1-2.2,2.2-4.5,3.4-6.7c0-0.1,0.1-0.1,0.1-0.2c0.3,0.9,0.6,1.8,0.9,2.7
		c0.9,2.5,2,4.8,3.7,6.8c0.5,0.6,1,1.3,1.7,1.7c0.5,0.3,1,0.5,1.6,0.3c0.8-0.2,1.1-0.8,1.3-1.5c0.1-0.5,0.1-1,0.1-1.5
		c0-1.4,0-2.9,0.1-4.3c0.1-1.1,0.2-2.2,0.4-3.3c0.2-1.6,0.5-3.3,0.8-4.9c0.4-2.1,0.9-4.2,1.9-6.1c0.2-0.5,0.3-1,0.1-1.5
		c-0.2-0.9-1-1.5-2-1.6c-0.8-0.1-1.6,0.2-2.1,1.1c-0.7,1.3-1.2,2.7-1.6,4.1C56.8,24.3,56.4,27.5,56,30.9z M62.9,30
		c0,0.5,0.1,1.4,0.3,2.2c0.3,1.4,0.8,2.6,1.8,3.7c1.8,1.9,4,2.4,6.5,1.7c1.6-0.4,2.7-1.4,3.6-2.7c2-2.8,2.8-6,2.5-9.4
		c-0.1-1.1-0.4-2.1-0.8-3.1c-1.5-3.3-4.9-4.2-7.6-3.4c-1.6,0.5-2.7,1.5-3.6,2.8C63.8,24.1,63,26.7,62.9,30z M93.6,26.8
		c0-0.4,0-0.9-0.1-1.3c-0.1-1.3-0.5-2.5-1.1-3.6c-1.8-3.4-6.2-4-8.9-2.3c-1.2,0.8-2,1.8-2.7,3c-1.5,2.6-2.1,5.3-1.9,8.3
		c0.1,1.1,0.4,2.2,0.8,3.2c1.4,3.2,4.7,4.3,7.5,3.5c1.7-0.4,2.9-1.5,3.8-2.9C92.7,32.4,93.6,29.7,93.6,26.8z"/>
	<path class="st7" d="M71,23c0.5,0,1,0.2,1.3,0.7c0.5,0.7,0.8,1.5,0.9,2.3c0.3,2.1-0.1,4-1.3,5.8c-0.4,0.6-0.8,1-1.4,1.3
		c-0.3,0.1-0.5,0.3-0.8,0.3c-0.7,0.1-1.2-0.2-1.5-0.8c-0.5-0.7-0.7-1.5-0.8-2.4C67,28,67.7,26,69.1,24.2c0.4-0.5,0.9-0.9,1.5-1.1
		C70.7,23,70.9,23,71,23z"/>
	<path class="st7" d="M89.3,26.9c0,1.7-0.4,3.2-1.2,4.5c-0.4,0.7-1,1.3-1.7,1.7c-1,0.6-1.8,0.4-2.4-0.6c-0.5-0.7-0.7-1.6-0.8-2.4
		c-0.2-2.2,0.5-4.2,1.9-6c0.3-0.3,0.6-0.6,1-0.9c0.7-0.4,1.7-0.3,2.2,0.5c0.5,0.7,0.7,1.4,0.9,2.2C89.2,26.3,89.2,26.7,89.3,26.9z"
		/>
</g>
</svg>
